<?xml version="1.0" encoding="UTF-8" standalone="no"?>
<svg width="961px" height="962px" viewBox="0 0 961 962" version="1.1" xmlns="http://www.w3.org/2000/svg" xmlns:xlink="http://www.w3.org/1999/xlink" xmlns:sketch="http://www.bohemiancoding.com/sketch/ns">
    <!-- Generator: Sketch 3.2.2 (9983) - http://www.bohemiancoding.com/sketch -->
    <title>logo-icon</title>
    <desc>Created with Sketch.</desc>
    <defs></defs>
    <g id="Page-1" stroke="none" stroke-width="1" fill="none" fill-rule="evenodd" sketch:type="MSPage">
        <g id="logo-icon" sketch:type="MSLayerGroup" fill="#ffffff">
            <path d="M480.5,961.163937 C745.872822,961.163937 961,746.036759 961,480.663937 C961,215.291115 745.872822,0.163936783 480.5,0.163936783 C215.127178,0.163936783 0,215.291115 0,480.663937 C0,746.036759 215.127178,961.163937 480.5,961.163937 Z M380.977046,854.637687 C588.032332,910.117984 800.859473,787.242177 856.33977,580.186891 C911.820067,373.131604 788.94426,160.304464 581.888973,104.824167 C374.833687,49.34387 162.006546,172.219677 106.526249,379.274963 C51.0459526,586.33025 173.92176,799.157391 380.977046,854.637687 Z" id="Oval-65" sketch:type="MSShapeGroup"></path>
            <path d="M444.926927,375.021815 C433.206276,372.389201 421.015371,371 408.5,371 C317.096874,371 243,445.096874 243,536.5 C243,589.064438 267.505403,635.905333 305.715069,666.221545 L305.715069,666.221545 C330.313135,688.700883 375.433289,721.021671 436.5,727.388489 C493.25,736.100719 365.5,788.5 512.5,780.5 C427,763.5 463,765.5 463,765.5 C492.749708,762.534595 529.5,761 529.5,723 C601.685099,701.611823 631.126827,684.655232 643.890666,674.499818 C688.55469,644.861596 718,594.119458 718,536.5 C718,445.096874 643.903126,371 552.5,371 C539.984629,371 527.793724,372.389201 516.073073,375.021815 L516.073073,375.021815 C531.092001,363.757018 548.253586,347.303778 564.844088,327.531988 C602.119277,283.109148 622.396276,238.756241 610.134034,228.466998 C597.871791,218.177755 557.713769,245.848503 520.438581,290.271342 C515.86466,295.722329 511.54668,301.172262 507.513356,306.558336 C507.914164,299.600194 508.124856,292.389234 508.124856,285 C508.124856,227.010101 495.14844,180 479.14122,180 C463.133999,180 450.157583,227.010101 450.157583,285 C450.157583,291.037567 450.298244,296.956116 450.568342,302.714984 C447.390102,298.586297 444.050214,294.429126 440.561419,290.271342 C403.286231,245.848503 363.128209,218.177755 350.865966,228.466998 C338.603724,238.756241 358.880723,283.109148 396.155912,327.531988 C412.746414,347.303778 429.907999,363.757018 444.926927,375.021815 Z" id="Oval-68" sketch:type="MSShapeGroup"></path>
        </g>
    </g>
</svg>